<svg width="512" height="512" viewBox="0 0 512 512" fill="none" xmlns="http://www.w3.org/2000/svg">
<g clip-path="url(#clip0_144_44)">
<path d="M503.732 351.461L417.822 187.275C417.356 186.381 416.369 185.885 415.374 186.046L370.897 193.212C369.318 193.464 368.449 195.203 369.186 196.628L411.947 279.154L399.737 281.948L355.969 197.256C355.503 196.355 354.516 195.852 353.515 196.013L302.856 204.171C301.277 204.423 300.408 206.148 301.138 207.573L345.484 294.353L323.652 299.347L308.147 269.137C295.639 240.318 227.375 264.87 243.423 301.373L250.786 316.013L235.343 319.547L187.82 224.372C187.361 223.45 186.36 222.94 185.352 223.1L115.962 234.276C114.405 234.528 113.529 236.225 114.231 237.65L162.665 336.171L144.003 340.439L94.54 239.417C94.0881 238.488 93.0799 237.964 92.0648 238.132L11.0149 251.179C9.46444 251.431 8.58837 253.114 9.27671 254.532L120.878 486.667C121.399 487.75 122.637 488.259 123.763 487.868L200.106 461.039C201.434 460.571 202.06 459.042 201.434 457.771L153.125 359.102L171.446 354.066L219.588 451.994C220.116 453.063 221.347 453.566 222.467 453.174L287.65 430.264C288.985 429.796 289.611 428.253 288.971 426.981L242.776 334.467L257.954 330.297L273.765 361.736C276.414 367.645 281.198 371.186 287.038 372.821L291.133 380.546L291.161 380.532C295.222 387.419 309.788 387.426 324.285 380.413C339.178 373.205 348.349 361.324 344.775 353.864C344.483 353.256 344.107 352.697 343.662 352.18L340.186 345.196C341.688 340.139 341.514 334.732 338.983 329.249L329.437 310.655L350.796 304.788L394.606 390.513C395.141 391.561 396.365 392.05 397.471 391.659L444.806 375.021C446.155 374.546 446.774 372.981 446.113 371.71L403.979 290.176L415.944 286.886L458.079 368.211C458.614 369.251 459.831 369.733 460.937 369.349L502.418 354.772C503.787 354.304 504.399 352.732 503.732 351.461ZM295.381 334.327C295.173 334.446 294.971 334.558 294.77 334.676C291.78 336.43 287.942 335.221 286.461 332.078L262.14 280.488C261.034 278.141 261.507 275.27 263.468 273.58C263.509 273.545 263.551 273.51 263.593 273.475C266.478 271.051 270.893 272.092 272.576 275.473L297.926 326.406C299.358 329.298 298.204 332.763 295.381 334.327Z" fill="url(#paint0_radial_144_44)"/>
<path d="M223.506 102.324C223.458 101.919 219.474 99.8936 219.001 99.684C217.777 99.1253 219.62 100.669 218.431 100.04C218.361 100.019 218.236 99.9704 218.048 99.8936C216.282 99.698 214.349 99.0484 212.674 98.769C212.257 98.6992 211.853 98.6154 211.45 98.5176C210.581 98.9576 209.663 99.3208 208.725 99.5793C206.736 100.131 204.727 100.515 202.71 100.948C202.043 101.095 201.368 101.242 200.701 101.416C200.659 101.472 199.707 101.856 199.255 102.073C197.843 102.736 196.376 103.407 195.034 104.224C195.333 104.091 194.27 104.958 193.706 105.419C193.56 105.586 193.338 105.845 193.157 106.082C190.571 109.47 188.262 112.941 186.051 116.587C185.843 116.958 185.641 117.335 185.432 117.705C185.801 116.93 185.801 116.923 185.432 117.691C184.967 118.634 184.535 119.598 184.118 120.569C183.305 122.476 182.616 124.424 181.991 126.408C181.33 128.504 180.113 130.201 178.57 131.486C180.475 136.809 184 141.628 189.006 145.107C201.647 153.886 218.883 150.848 227.518 138.31C235.361 126.918 233.4 111.614 223.506 102.324Z" fill="url(#paint1_radial_144_44)"/>
<path d="M200.804 116.517C205.296 109.322 214.432 103.881 222.615 102.379C222.838 102.337 223.06 102.309 223.276 102.275L223.346 102.135C223.213 102.023 223.005 101.876 222.748 101.716L212.757 98.7891L209.768 99.2291C209.42 99.3548 209.071 99.4806 208.717 99.5784C206.728 100.13 204.719 100.514 202.702 100.947C202.035 101.094 201.36 101.241 200.693 101.415C200.651 101.471 199.699 101.855 199.247 102.072C197.835 102.736 196.368 103.406 195.026 104.223C195.325 104.091 194.263 104.957 193.699 105.418C193.553 105.585 193.33 105.844 193.149 106.081C190.563 109.469 188.255 112.94 186.044 116.587C185.836 116.957 185.633 117.334 185.424 117.704C185.793 116.929 185.793 116.922 185.424 117.69C184.959 118.633 184.528 119.597 184.11 120.568C183.297 122.475 182.609 124.424 181.983 126.407C181.322 128.503 180.105 130.2 178.562 131.485C180.467 136.808 183.992 141.627 188.998 145.106C191.682 146.971 194.581 148.298 197.557 149.115C193.42 138.777 194.526 126.568 200.804 116.517Z" fill="#121214"/>
<path d="M209.76 144.164C197.981 134.552 202.438 125.598 202.438 125.598C204.448 133.875 213.493 136.892 213.493 136.892L214.697 134.545L221.079 134.189C222.004 134.14 222.741 133.386 222.775 132.457L223.214 120.953C223.347 117.551 222.192 114.226 219.988 111.642L219.641 111.237C216.421 107.458 211.394 105.768 206.561 106.822C202.598 107.689 199.233 110.308 197.411 113.954L184.312 140.112L205.567 154.026L207.215 149.151L209.76 144.164Z" fill="#8157E4"/>
<path d="M202.626 117.572C204.448 113.932 207.813 111.313 211.776 110.44C214.39 109.867 217.06 110.105 219.466 111.041C216.24 107.402 211.31 105.781 206.561 106.822C202.598 107.688 199.233 110.307 197.411 113.953L184.312 140.112L189.604 143.576L202.626 117.572Z" fill="#D7D7E1"/>
<path d="M211.162 123.49C212.27 121.881 212.52 120.127 211.721 119.572C210.922 119.017 209.376 119.87 208.269 121.479C207.161 123.087 206.911 124.841 207.71 125.397C208.509 125.952 210.055 125.098 211.162 123.49Z" fill="#121214"/>
<path d="M216.477 126.943C217.401 125.222 217.458 123.45 216.603 122.987C215.748 122.523 214.305 123.543 213.381 125.264C212.456 126.985 212.399 128.756 213.254 129.22C214.109 129.683 215.552 128.664 216.477 126.943Z" fill="#121214"/>
<path d="M210.818 116.518C212.703 115.729 216.297 114.911 219.204 118.229C219.454 118.509 219.169 118.942 218.814 118.809C217.292 118.229 214.462 117.356 210.951 117.202C210.568 117.188 210.464 116.665 210.818 116.518Z" fill="#121214"/>
<path d="M191.062 113.192C194.358 106.612 200.428 101.884 207.589 100.319C213.054 99.1247 218.651 99.872 223.504 102.275C217.72 96.8686 209.626 94.5775 201.797 96.2958C194.636 97.8674 188.566 102.596 185.27 109.169L161.617 156.408L167.499 160.256L191.062 113.192Z" fill="white"/>
<path d="M271.805 241.363C273.724 236.516 273.098 231.235 273.745 226.15C274.406 220.926 276.109 216.141 274.628 210.839C273.669 207.403 270.672 204.909 268.697 202.039C267.272 199.971 266.201 197.924 265.805 195.71C265.721 195.717 265.645 195.717 265.561 195.724C265.652 196.416 265.728 197.114 265.763 197.827C266.076 203.792 263.789 208.919 260.395 213.689C258.24 216.721 254.451 215.729 252.838 213.389C248.04 217.398 243.111 217.657 240.024 212.823C229.302 196.046 234.35 173.17 231.061 169.545C225.854 162.937 195.191 126.742 145.902 123.752L145.888 123.801C136.94 116.446 105.033 92.2366 81.9217 100.367C54.7915 109.894 48.9302 155.729 57.7048 167.848C66.4793 179.966 78.473 187.44 78.473 187.44C78.473 187.44 88.3461 146.977 105.68 139.231C120.955 132.4 142.217 147.787 147.043 151.531C147.161 151.622 147.056 151.81 146.917 151.762C145.791 151.363 143.246 150.05 139.825 149.121C138.831 148.849 137.795 149.401 137.482 150.393L114.705 222.525C114.705 222.525 111.687 234.93 105.283 242.739C105.756 243.92 105.631 245.303 104.512 246.63C100.987 250.814 96.4393 253.538 90.8144 252.832C85.8014 252.204 81.3724 249.459 77.0616 247.007C74.6003 245.61 70.06 242.362 67.0564 243.431C65.047 244.143 64.2196 247.349 63.5174 249.123C62.1755 252.497 61.0491 255.948 59.6724 259.307C56.6549 266.69 52.7891 274.038 50.7936 281.799C49.4795 286.912 52.059 289.999 55.5911 293.421C57.1416 294.923 59.9158 298.374 62.1337 298.793C63.0098 298.96 64.4073 297.263 65.2764 296.159C68.3357 292.262 70.2895 286.667 74.934 284.327C79.5646 281.994 86.149 283.279 91.1342 283.224C97.9411 283.14 104.679 282.462 110.644 278.914C113.662 277.119 116.234 279.389 116.728 282.134C119.829 280.192 123.006 277.796 126.226 274.842C136.419 265.489 149.121 238.101 160.712 208.527C160.914 208.018 160.691 207.438 160.204 207.186C154.336 204.12 150.074 200.467 147.501 197.903C147.105 197.505 147.613 196.877 148.079 197.191C151.499 199.482 157.326 202.961 164.995 205.971L169.194 207.466C169.194 207.466 169.201 207.48 169.215 207.508C174.666 209.345 180.868 210.86 187.668 211.587C188.44 211.671 188.426 212.809 187.647 212.858C182.162 213.228 177.183 212.753 172.713 211.761C171.892 211.58 171.204 212.383 171.517 213.172C176.954 226.898 189.845 261.529 186.577 273.563C189.226 274.451 191.145 277.461 188.934 280.269C183.935 286.625 177.086 288.86 169.25 289.14C166.775 289.23 164.181 289.063 161.574 288.965C161.539 289.126 161.518 289.286 161.47 289.454C160.962 291.193 160.149 292.779 159.182 294.274C159.057 295.175 158.911 296.781 158.918 297.773C158.939 301.629 159.857 305.694 160.99 309.424C163.145 316.52 166.525 323.617 171.232 329.365C172.177 330.525 173.436 331.901 174.27 332.62C174.854 333.123 175.466 333.556 176.092 334.01C176.912 334.597 176.891 334.555 177.246 334.716C178.782 335.407 178.477 335.296 180.138 335.365C179.158 335.324 181.112 334.974 180.236 335.331C180.861 335.079 181.369 334.8 181.334 334.828C184.797 332.446 183.935 328.311 184.317 324.211C184.894 317.959 188.593 314.229 194.127 311.708C200.51 308.795 206.052 305.435 211.642 301.14C214.381 299.037 218.164 296.76 218.762 293.051C219.248 290.055 218.636 287.282 219.721 284.306C220.764 281.456 223.545 280.891 225.714 281.764C227.988 251.226 203.576 207.298 203.576 207.298C203.576 207.298 214.465 204.846 229.288 175.81C229.372 175.65 229.608 175.748 229.552 175.915C227.87 180.679 222.982 193.273 215.675 201.55C215.355 201.913 215.153 202.367 215.118 202.856C212.9 236.774 247.088 259.559 265.158 250.96C268.044 249.584 270.63 247.929 272.959 246.085C271.715 244.96 271.054 243.256 271.805 241.363Z" fill="white"/>
<path d="M78.4766 187.448C78.4766 187.448 86.0414 162.079 97.6179 147.837L67.505 108.365C52.2921 125.338 50.672 158.125 57.7084 167.848C66.4899 179.974 78.4766 187.448 78.4766 187.448Z" fill="url(#paint2_linear_144_44)"/>
<path d="M78.479 187.449C78.479 187.449 96.8694 152.042 89.1587 145.826C81.4479 139.609 74.9956 151.47 68.898 165.3C68.898 165.3 66.4644 139.002 55.1104 138.68C43.7633 138.366 55.0965 166.885 55.0965 166.885C55.0965 166.885 35.837 156.087 31.0325 163.071C26.2281 170.056 39.7723 177.747 46.5861 179.046C43.8745 181.288 43.0332 195.992 58.4269 195C57.3631 192.632 56.9042 190.397 56.8069 188.392C56.7513 187.323 58.2948 187.141 58.5242 188.189C59.3934 192.038 61.4723 194.127 61.4723 194.127L62.0355 194.881C65.206 196.613 83.645 206.182 90.0278 198.052C97.0154 189.139 78.479 187.449 78.479 187.449Z" fill="url(#paint3_linear_144_44)"/>
<path d="M54.732 173.973C58.4657 173.61 63.5691 173.694 68.756 175.566C69.5625 175.859 70.1049 174.749 69.3748 174.302C66.1348 172.304 61.08 170.579 54.4817 172.59C53.6613 172.842 53.8838 174.057 54.732 173.973Z" fill="#121214"/>
<path d="M91.5949 248.621C79.3857 245.764 69.1371 240.853 65.9875 239.254C65.3965 238.953 64.6803 239.128 64.2909 239.659C61.6975 243.186 52.5753 256.674 47.7222 277.496C42.0278 301.936 61.9478 314.055 77.265 286.842C77.265 286.842 96.2256 297.598 118.162 283.426L104.646 239.617C101.127 243.892 97.199 249.934 91.5949 248.621Z" fill="#464650"/>
<path d="M156.588 286.758C156.066 286.751 155.614 287.107 155.489 287.617C154.405 292.15 150.49 313.328 166.468 332.069C184.476 353.184 195.156 333.941 191.102 319.929C191.102 319.929 221.083 314.949 226.242 287.561C226.68 285.221 226.93 282.77 227.007 280.234L185.609 270.078C186.548 272.453 186.506 274.08 186.013 275.093C180.443 286.472 160.947 286.821 156.588 286.758Z" fill="#464650"/>
<path d="M295.334 199.715C323.062 201.203 321.553 181.959 310.7 185.291C301.452 188.126 295.042 187.512 295.042 187.512C320.788 175.372 313.356 158.189 301.084 167.696C291.642 175.009 284.751 180.366 284.751 180.366C299.881 153.929 286.1 142.208 280.169 158.622C276.77 168.024 273.349 174.303 271.437 177.461C271.152 177.929 271.193 178.515 271.513 178.955C273.981 182.343 273.773 186.813 273.773 186.813C272.494 182.511 268.676 178.557 268.607 178.487C265.819 175.624 259.158 169.491 255.647 172.138C251.127 175.547 262.036 189.684 262.036 189.684C262.036 189.684 258.706 196.104 263.337 200.413C263.337 200.413 255.466 211.289 247.797 212.693C247.797 212.693 255.751 239.025 273.481 249.426C273.481 249.426 282.846 234.346 287.644 214.034C295.111 212.658 295.334 199.715 295.334 199.715ZM281.414 205.994C280.969 206.281 280.441 205.764 280.712 205.31C282.221 202.809 284.585 197.906 284.55 191.71C284.55 191.186 285.224 190.998 285.481 191.452C287.115 194.343 289.389 200.783 281.414 205.994Z" fill="url(#paint4_linear_144_44)"/>
<path d="M131.75 168.569C131.841 169.009 202.308 200.42 210.401 204.032C210.853 204.234 211.382 204.122 211.715 203.752L217.25 197.633C217.778 197.047 217.584 196.118 216.86 195.796L134.406 159.28C133.704 158.965 132.897 159.426 132.8 160.195L131.75 168.569Z" fill="#D7D7E1"/>
<path d="M186.497 155.736C189.999 155.736 192.838 152.884 192.838 149.366C192.838 145.848 189.999 142.996 186.497 142.996C182.995 142.996 180.156 145.848 180.156 149.366C180.156 152.884 182.995 155.736 186.497 155.736Z" fill="#D7D7E1"/>
<path d="M192.703 186.379L197.932 173.296C198.342 172.262 199.371 171.613 200.483 171.683L202.117 171.788C202.479 171.808 202.806 171.585 202.917 171.243L205.448 163.217C205.552 162.882 205.427 162.512 205.142 162.316L202.701 160.619C201.686 159.913 201.262 158.628 201.652 157.455L205.135 147.026C205.17 146.914 205.337 146.963 205.309 147.075L203.119 158.202C203.014 158.74 203.237 159.285 203.682 159.592L206.428 161.499C207.117 161.974 207.415 162.847 207.165 163.643L204.523 172.158C204.252 173.024 203.445 173.611 202.542 173.597L199.844 173.548C199.329 173.541 198.863 173.855 198.683 174.337L193.864 187.182L192.703 186.379Z" fill="#D7D7E1"/>
<path d="M201.667 164.104L200.145 168.812C199.964 169.363 200.277 169.957 200.833 170.118L200.979 170.16C201.521 170.32 202.092 170.006 202.245 169.461L203.621 164.711C203.746 164.285 203.586 163.831 203.218 163.58C202.662 163.182 201.883 163.447 201.667 164.104Z" fill="#8157E4"/>
<path d="M467.851 215.737C468.212 215.583 471.807 217.972 472.21 218.265C473.26 219.026 471.091 218.216 472.19 218.915C472.238 218.964 472.342 219.047 472.495 219.166C473.504 220.563 474.971 221.876 476.007 223.155C476.264 223.469 476.528 223.776 476.799 224.063C476.848 225.006 476.98 225.948 477.216 226.863C477.71 228.798 478.35 230.677 478.948 232.577C479.149 233.206 479.344 233.848 479.518 234.491C479.49 234.554 479.622 235.539 479.664 236.021C479.789 237.529 479.928 239.08 479.886 240.603C479.852 240.288 479.636 241.602 479.525 242.293C479.455 242.496 479.351 242.81 479.24 243.075C477.648 246.875 475.861 250.479 473.879 254.084C473.664 254.433 473.455 254.789 473.239 255.138C473.712 254.454 473.719 254.454 473.253 255.131C472.69 255.976 472.092 256.801 471.48 257.611C470.277 259.21 468.984 260.719 467.628 262.193C466.196 263.751 465.362 265.588 465.035 267.501C459.681 268.444 453.98 267.781 448.682 265.231C435.311 258.798 429.596 242.831 435.923 229.567C441.673 217.525 455.37 211.86 467.851 215.737Z" fill="url(#paint5_radial_144_44)"/>
<path d="M466.876 241.636C470.728 234.406 470.895 224.118 468.225 216.518C468.156 216.315 468.072 216.113 467.996 215.91L468.079 215.785C468.239 215.841 468.455 215.945 468.719 216.085L475.936 223.098L477 225.822C477.062 226.171 477.125 226.527 477.208 226.87C477.702 228.804 478.342 230.683 478.94 232.583C479.141 233.212 479.336 233.854 479.51 234.497C479.482 234.56 479.614 235.545 479.656 236.027C479.781 237.535 479.92 239.086 479.878 240.609C479.844 240.294 479.628 241.608 479.517 242.299C479.447 242.502 479.343 242.816 479.232 243.081C477.64 246.881 475.853 250.485 473.871 254.09C473.656 254.439 473.447 254.795 473.231 255.144C473.704 254.46 473.711 254.46 473.245 255.137C472.682 255.982 472.084 256.807 471.472 257.617C470.269 259.216 468.976 260.725 467.62 262.199C466.188 263.757 465.354 265.594 465.027 267.507C459.673 268.45 453.972 267.787 448.674 265.237C445.83 263.868 443.341 262.066 441.234 259.957C451.844 258.504 461.502 251.729 466.876 241.636Z" fill="#121214"/>
<path d="M445.101 240.784C445.101 240.784 437.78 241.748 437.501 243.969C437.223 246.19 439.434 246.469 439.434 246.469C439.434 246.469 437.279 249.103 440.79 251.701C444.294 254.299 447.138 254.886 447.138 254.886L459.932 247.706C459.925 247.706 449.885 238.597 445.101 240.784Z" fill="#4D3580"/>
<path d="M472.784 235.909C472.924 231.844 470.782 228.037 467.243 226.067C464.253 224.398 460.652 224.258 457.537 225.676C452.565 227.946 445.633 231.879 444.229 236.615C443.415 239.758 446.996 241.867 446.996 241.867L444.458 244.996C444.458 244.996 449.075 248.356 454.742 247.944C454.742 247.944 452.273 252.771 442.623 249.439L437.672 255.544L457.585 265.127L469.517 246.449C471.526 243.299 472.659 239.653 472.784 235.909Z" fill="#8157E4"/>
<path d="M461.127 241.801C461.938 240.1 461.911 238.391 461.066 237.984C460.221 237.578 458.878 238.627 458.067 240.329C457.256 242.03 457.284 243.739 458.129 244.145C458.974 244.552 460.316 243.503 461.127 241.801Z" fill="#121214"/>
<path d="M455.532 239.312C456.525 237.711 456.685 236.01 455.889 235.512C455.094 235.015 453.644 235.909 452.652 237.511C451.659 239.112 451.499 240.813 452.295 241.311C453.09 241.809 454.54 240.914 455.532 239.312Z" fill="#121214"/>
<path d="M463.711 236.664C462.995 235.198 461.173 232.69 456.994 232.369C456.64 232.341 456.535 232.697 456.855 232.851C458.253 233.514 460.728 234.841 463.155 236.874C463.426 237.097 463.85 236.937 463.711 236.664Z" fill="#121214"/>
<path d="M474.315 248.245C478.223 242.329 479.266 234.953 477.145 228.178C475.525 223.002 472.222 218.65 467.898 215.717C475.17 218.001 480.955 223.714 483.27 231.125C485.391 237.901 484.348 245.277 480.441 251.193L452.365 293.71L446.344 290.601L474.315 248.245Z" fill="white"/>
<path d="M478.774 283.58C478.795 283.51 478.809 283.468 478.809 283.468C478.781 283.433 478.753 283.398 478.725 283.363C478.67 283.126 478.642 282.993 478.642 282.993L478.475 283.035C461.204 260.739 423.686 249.675 413.806 246.972C413.097 246.776 412.374 246.79 411.692 246.972C411.609 246.846 411.553 246.79 411.553 246.79L411.581 247C411.352 247.07 411.136 247.161 410.921 247.265C411.324 246.951 411.553 246.79 411.553 246.79C411.553 246.79 386.293 262.094 367.34 259.251C353.441 257.17 355.506 247.154 357.599 241.964C356.584 241.601 355.589 241.188 354.63 240.72C351.195 239.065 348.212 236.928 345.689 234.434C338.923 235.705 331.574 234.916 325.358 232.164C323.975 234.672 322.654 237.417 321.569 240.322C318.718 247.964 317.467 256.709 320.811 265.105C329.169 286.094 368.758 287.421 391.508 273.025C395.492 263.505 401.194 256.492 405.497 252.127C405.838 251.785 406.366 252.252 406.074 252.637C399.65 261.046 389.867 276.672 391.453 292.29C378.325 297.57 343.394 312.539 319.963 331.084C312.509 336.825 308.678 343.614 306.898 350.166C310.639 350.578 314.262 351.57 317.376 353.219C324.016 356.732 331.025 359.442 337.804 362.662C341.114 364.234 343.999 366.259 346.46 368.627C344.903 360.203 347.941 354.574 353.378 349.517C357.105 346.052 373.159 338.69 390.493 331.328C389.944 336.755 390.104 341.784 390.861 346.408C382.97 357.731 374.474 371.505 368.369 385.663C361.715 400.541 366.067 413.03 371.157 421.111C371.602 420.93 372.047 420.755 372.492 420.595C380.307 417.829 389.638 418.192 397.286 421.496C397.724 418.199 398.593 414.909 399.935 411.738C401.416 408.238 403.877 404.935 406.846 402.106C404.183 396.818 404.58 391.593 406.499 385.957C406.798 385.077 407.402 383.882 408.258 382.429C408.828 381.465 408.64 380.243 407.834 379.475C400.387 372.364 395.443 360.301 395.443 360.301L395.464 360.315C410.392 388.737 452.756 392.215 468.706 366.071C488.772 333.172 479.991 289.119 478.774 283.58ZM405.866 326.529L403.669 325.831C405.073 325.251 406.471 324.679 407.847 324.12C407.243 324.853 406.575 325.663 405.866 326.529ZM449.836 355.398C443.015 356.278 438.517 352.052 435.541 346.101C441.437 338.823 447.34 331.691 452.297 325.754C455.836 315.85 459.16 302.39 461.044 294.231C461.155 293.757 461.857 293.889 461.802 294.378C455.781 342.399 444.176 350.362 444.176 350.362C444.746 351.996 447.625 353.17 449.954 353.868C450.747 354.106 450.663 355.286 449.836 355.398Z" fill="white"/>
<path d="M449.725 328.961C441.931 323.618 398.336 291.69 391.313 287.59C390.882 287.339 390.66 286.843 390.757 286.354L392.44 278.258C392.6 277.483 393.469 277.099 394.143 277.497L454.932 321.18C455.6 321.571 455.704 322.493 455.141 323.024L451.644 328.563C451.234 329.213 450.364 329.394 449.725 328.961Z" fill="#D7D7E1"/>
<path d="M419.527 262.276C422.416 260.287 423.61 256.991 422.193 254.912C420.776 252.834 417.285 252.761 414.395 254.749C411.506 256.737 410.312 260.034 411.729 262.112C413.146 264.19 416.637 264.264 419.527 262.276Z" fill="#D7D7E1"/>
<path d="M410.109 287.506L419.572 277.099C420.323 276.275 421.512 276.03 422.52 276.484L424.008 277.162C424.335 277.308 424.724 277.218 424.947 276.931L430.119 270.309C430.335 270.03 430.349 269.646 430.147 269.353L428.458 266.901C427.756 265.888 427.804 264.526 428.583 263.569L435.494 255.034C435.564 254.943 435.703 255.041 435.64 255.138L429.702 264.784C429.417 265.245 429.431 265.839 429.744 266.286L431.649 269.038C432.122 269.73 432.101 270.645 431.587 271.308L426.136 278.349C425.579 279.069 424.62 279.334 423.778 278.999L421.268 278.007C420.789 277.818 420.246 277.951 419.906 278.335L410.909 288.666L410.109 287.506Z" fill="#D7D7E1"/>
<path d="M426.291 269.814L423.224 273.683C422.863 274.137 422.946 274.801 423.412 275.15L423.53 275.241C423.982 275.583 424.622 275.485 424.963 275.031L427.911 271.071C428.175 270.715 428.182 270.233 427.931 269.87C427.542 269.304 426.715 269.276 426.291 269.814Z" fill="#8157E4"/>
<path d="M453.512 236.546C453.436 236.511 453.373 236.434 453.352 236.343L452.963 234.757C452.921 234.597 453.018 234.429 453.185 234.387C453.345 234.345 453.512 234.443 453.554 234.611L453.943 236.196C453.985 236.357 453.888 236.525 453.721 236.566C453.644 236.58 453.575 236.573 453.512 236.546Z" fill="#121214"/>
<path d="M461.31 241.294C461.22 241.252 461.157 241.162 461.143 241.057C461.122 240.889 461.241 240.736 461.407 240.715L462.77 240.54C462.937 240.519 463.09 240.638 463.111 240.805C463.132 240.973 463.014 241.127 462.847 241.148L461.484 241.322C461.421 241.329 461.359 241.322 461.31 241.294Z" fill="#121214"/>
<path d="M435.281 293.661C436.415 288.199 433.94 287.298 431.311 288.073C431.311 288.073 431.471 297.565 427.209 307.128L425.388 293.822C423.531 299.745 423.469 311.368 423.469 311.368C423.469 311.368 433.411 302.699 435.281 293.661Z" fill="url(#paint6_linear_144_44)"/>
<path d="M427.287 311.249C427.287 311.249 431.716 293.766 428.99 281.465C426.932 272.175 425.187 263.032 419.249 264.227C415.794 264.918 416.642 277.882 416.802 287.375C416.802 287.375 410.815 268.802 405.1 266.05C399.385 263.298 399.955 278.483 404.509 286.948C404.509 286.948 393.829 270.038 387.252 272.364C380.674 274.69 392.348 294.436 392.348 294.436C392.348 294.436 382.781 306.31 392.112 317.863C392.112 317.863 384.721 346.473 393.496 362.469L433.329 332.986C433.322 332.979 428.691 319.77 427.287 311.249Z" fill="url(#paint7_linear_144_44)"/>
<path d="M411.387 315.516C413.515 314.405 417.847 312.589 421.977 313.574C422.408 313.679 422.512 314.237 422.158 314.496C420.802 315.446 417.562 317.059 411.582 316.48C411.075 316.431 410.943 315.746 411.387 315.516Z" fill="#121214"/>
<path d="M364.988 222.414C364.988 222.414 368.402 219.942 372.504 219.103C373.248 218.95 373.888 218.51 374.291 217.86C378.282 211.371 386.757 196.137 382.252 190.305C376.453 182.81 363.069 210.889 363.069 210.889C363.069 210.889 370.488 183.857 364.14 180.805C357.785 177.746 349.121 205.748 349.121 205.748C349.121 205.748 353.752 181.301 348.058 180.127C342.37 178.961 337.962 198.023 338.706 204.659C338.706 204.659 332.302 214.011 331.329 223.015C331.329 223.015 322.478 232.151 320.371 238.2C319.231 240.568 341.119 256.214 358.689 249.578L359.134 238.808C359.134 238.808 364.849 241.56 371.016 233.541C371.016 233.541 382.064 234.938 385.443 229.497C386.778 227.353 382.85 222.729 377.267 221.248C372.893 220.102 367.053 221.688 364.988 222.414ZM356.603 215.255C351.235 218.293 348.162 222.791 346.757 225.348C346.5 225.816 345.791 225.606 345.819 225.075C346.361 215.527 353.064 214.319 356.366 214.312C356.881 214.305 357.055 214.996 356.603 215.255Z" fill="url(#paint8_linear_144_44)"/>
<path d="M470.206 240.883C470.206 240.883 469.594 238.466 468.426 236.986C469.316 231.887 467.397 227.402 463.941 224.532C459.304 220.676 458.254 223.365 458.254 223.365C458.254 223.365 449.89 220.25 449.438 223.833C448.881 228.275 455.793 226.892 461.536 231.223C463.774 232.913 465.068 234.862 465.826 236.615C464.595 238.424 461.591 243.272 461.876 246.932C458.657 248.098 452.469 250.655 451.823 253.232C450.94 256.732 454.11 258.254 454.11 258.254C454.11 258.254 453.637 259.693 454.687 260.545L462.307 248.615C462.356 248.72 462.398 248.839 462.46 248.937C465.061 253.316 470.206 240.883 470.206 240.883Z" fill="#4D3580"/>
<path d="M472.782 235.91C472.921 231.845 470.779 228.038 467.24 226.069C466.322 225.559 465.342 225.203 464.334 224.979C466.941 227.095 468.45 230.336 468.339 233.773C468.213 237.517 467.08 241.163 465.064 244.32L453.133 262.998L457.582 265.135L469.514 246.457C471.523 243.3 472.656 239.654 472.782 235.91Z" fill="#D7D7E1"/>
<path d="M308.349 376.36C308.349 376.36 286.092 387.424 299.157 400.625C310.108 411.696 342.564 395.051 352.395 389.938C354.001 389.107 355.058 387.92 353.967 386.467C345.832 375.613 343.76 359.666 355.489 350.446L316.101 331.496C296.612 352.716 308.349 376.36 308.349 376.36Z" fill="#464650"/>
<path d="M379.529 431.066C379.529 431.066 365.345 449.345 383.082 454.745C397.954 459.271 418.472 431.206 424.716 422.027C425.738 420.526 425.94 419.834 424.382 418.912C411.387 411.208 403.364 405.662 407.494 388.814L363.148 393.369C363.315 422.481 379.529 431.066 379.529 431.066Z" fill="#464650"/>
<path d="M379.573 309.733C379.385 309.656 379.232 309.53 379.072 309.412C378.746 309.216 378.384 309.09 378.029 308.958C377.863 308.895 377.744 308.727 377.675 308.567C377.619 308.427 377.633 308.273 377.682 308.126L311.136 261.635C310.816 262.313 310.941 263.116 311.463 263.661L346.31 299.905C346.519 300.122 346.769 300.275 347.054 300.366L377.445 309.991C378.134 310.208 378.878 310.166 379.538 309.866C379.566 309.824 379.573 309.775 379.573 309.733Z" fill="#D7D7E1"/>
<path d="M343.092 276.673L311.039 261.852L347.069 299.318L379.65 309.754L343.092 276.673Z" fill="#F2F2F2"/>
<path d="M339.127 283.749C341.853 287.535 344.3 291.544 345.503 296.098C345.51 296.112 345.503 296.126 345.503 296.14L363.087 301.77L340.323 281.172L335.922 279.139C336.965 280.676 338.028 282.226 339.127 283.749Z" fill="url(#paint9_radial_144_44)"/>
<path d="M352.944 286.451L342.008 282.086L354.119 292.507L363.054 295.42L352.944 286.451Z" fill="#C2C2C2"/>
<path d="M313.938 225.048L311.031 261.852L347.061 299.318L350.406 259.239C350.489 258.227 350.1 257.228 349.342 256.55L314.348 224.888C314.195 224.748 313.952 224.846 313.938 225.048Z" fill="#D7D7E1"/>
<path d="M329.48 266.619C331.518 266.108 332.564 263.257 331.816 260.252C331.068 257.247 328.81 255.225 326.772 255.737C324.735 256.249 323.689 259.1 324.437 262.105C325.185 265.11 327.443 267.131 329.48 266.619Z" fill="#F2F2F2"/>
<path d="M258.326 483.362C261.478 483.362 264.034 480.794 264.034 477.627C264.034 474.46 261.478 471.893 258.326 471.893C255.173 471.893 252.617 474.46 252.617 477.627C252.617 480.794 255.173 483.362 258.326 483.362Z" fill="black"/>
<path d="M293.482 95.3868C294.819 95.3868 295.901 94.2986 295.901 92.9561C295.901 91.6137 294.819 90.5254 293.482 90.5254C292.146 90.5254 291.062 91.6137 291.062 92.9561C291.062 94.2986 292.146 95.3868 293.482 95.3868Z" fill="black"/>
<path d="M301.546 472.656C302.947 472.656 304.083 471.514 304.083 470.106C304.083 468.698 302.947 467.557 301.546 467.557C300.144 467.557 299.008 468.698 299.008 470.106C299.008 471.514 300.144 472.656 301.546 472.656Z" fill="white"/>
<path d="M325.703 115.511C326.402 115.511 326.967 114.942 326.967 114.24C326.967 113.538 326.402 112.969 325.703 112.969C325.004 112.969 324.438 113.538 324.438 114.24C324.438 114.942 325.004 115.511 325.703 115.511Z" fill="white"/>
<path d="M252.217 122.837C253.269 122.837 254.122 121.981 254.122 120.924C254.122 119.867 253.269 119.01 252.217 119.01C251.165 119.01 250.312 119.867 250.312 120.924C250.312 121.981 251.165 122.837 252.217 122.837Z" fill="white"/>
<path d="M272.203 457.992C272.902 457.992 273.469 457.423 273.469 456.72C273.469 456.018 272.902 455.449 272.203 455.449C271.505 455.449 270.938 456.018 270.938 456.72C270.938 457.423 271.505 457.992 272.203 457.992Z" fill="white"/>
<path d="M313.701 95.4427C315.103 95.4427 316.239 94.3012 316.239 92.8932C316.239 91.4852 315.103 90.3438 313.701 90.3438C312.3 90.3438 311.164 91.4852 311.164 92.8932C311.164 94.3012 312.3 95.4427 313.701 95.4427Z" fill="white"/>
<path d="M307.085 113.73C308.487 113.73 309.623 112.588 309.623 111.18C309.623 109.772 308.487 108.631 307.085 108.631C305.683 108.631 304.547 109.772 304.547 111.18C304.547 112.588 305.683 113.73 307.085 113.73Z" fill="white"/>
<path d="M336.12 145.636L329.633 141.026L336.989 138.03L341.578 131.506L344.568 138.903L351.055 143.506L343.692 146.509L339.11 153.026L336.12 145.636Z" fill="white"/>
<path d="M221.936 484.285L218.953 482.175L222.332 480.799L224.439 477.803L225.809 481.197L228.785 483.314L225.406 484.69L223.306 487.679L221.936 484.285Z" fill="white"/>
<path d="M274.757 130.507L271.781 128.398L275.161 127.015L277.26 124.025L278.63 127.42L281.613 129.529L278.234 130.912L276.127 133.902L274.757 130.507Z" fill="white"/>
<path d="M317.702 444.491L319.642 438.812L323.355 443.513L329.008 445.462L324.328 449.192L322.388 454.871L318.676 450.171L313.023 448.221L317.702 444.491Z" fill="white"/>
</g>
<defs>
<radialGradient id="paint0_radial_144_44" cx="0" cy="0" r="1" gradientUnits="userSpaceOnUse" gradientTransform="translate(266.855 159.859) scale(307.248 308.661)">
<stop offset="0.2882" stop-color="#27272E"/>
<stop offset="1" stop-color="#121214"/>
</radialGradient>
<radialGradient id="paint1_radial_144_44" cx="0" cy="0" r="1" gradientUnits="userSpaceOnUse" gradientTransform="translate(232.163 97.9296) rotate(34.7968) scale(97.5465 97.7035)">
<stop offset="0.2882" stop-color="#27272E"/>
<stop offset="1" stop-color="#121214"/>
</radialGradient>
<linearGradient id="paint2_linear_144_44" x1="98.8528" y1="105.155" x2="51.0257" y2="182.357" gradientUnits="userSpaceOnUse">
<stop stop-color="#8157E4"/>
<stop offset="0.1004" stop-color="#7D55DD"/>
<stop offset="0.249" stop-color="#724EC9"/>
<stop offset="0.4275" stop-color="#6143A8"/>
<stop offset="0.6294" stop-color="#49347A"/>
<stop offset="0.8478" stop-color="#2A2141"/>
<stop offset="1" stop-color="#121214"/>
</linearGradient>
<linearGradient id="paint3_linear_144_44" x1="65.9053" y1="143.219" x2="55.1561" y2="220.483" gradientUnits="userSpaceOnUse">
<stop stop-color="#8157E4"/>
<stop offset="0.1004" stop-color="#7D55DD"/>
<stop offset="0.249" stop-color="#724EC9"/>
<stop offset="0.4275" stop-color="#6143A8"/>
<stop offset="0.6294" stop-color="#49347A"/>
<stop offset="0.8478" stop-color="#2A2141"/>
<stop offset="1" stop-color="#121214"/>
</linearGradient>
<linearGradient id="paint4_linear_144_44" x1="334.835" y1="169.177" x2="217.293" y2="234.853" gradientUnits="userSpaceOnUse">
<stop stop-color="#8157E4"/>
<stop offset="0.1004" stop-color="#7D55DD"/>
<stop offset="0.249" stop-color="#724EC9"/>
<stop offset="0.4275" stop-color="#6143A8"/>
<stop offset="0.6294" stop-color="#49347A"/>
<stop offset="0.8478" stop-color="#2A2141"/>
<stop offset="1" stop-color="#121214"/>
</linearGradient>
<radialGradient id="paint5_radial_144_44" cx="0" cy="0" r="1" gradientUnits="userSpaceOnUse" gradientTransform="translate(464.822 206.357) rotate(25.6964) scale(75.7021 75.9196)">
<stop offset="0.2882" stop-color="#27272E"/>
<stop offset="1" stop-color="#121214"/>
</radialGradient>
<linearGradient id="paint6_linear_144_44" x1="437.912" y1="268.118" x2="425.436" y2="310.068" gradientUnits="userSpaceOnUse">
<stop stop-color="#8157E4"/>
<stop offset="0.1004" stop-color="#7D55DD"/>
<stop offset="0.249" stop-color="#724EC9"/>
<stop offset="0.4275" stop-color="#6143A8"/>
<stop offset="0.6294" stop-color="#49347A"/>
<stop offset="0.8478" stop-color="#2A2141"/>
<stop offset="1" stop-color="#121214"/>
</linearGradient>
<linearGradient id="paint7_linear_144_44" x1="374.395" y1="297.43" x2="436.225" y2="326.91" gradientUnits="userSpaceOnUse">
<stop stop-color="#8157E4"/>
<stop offset="0.1004" stop-color="#7D55DD"/>
<stop offset="0.249" stop-color="#724EC9"/>
<stop offset="0.4275" stop-color="#6143A8"/>
<stop offset="0.6294" stop-color="#49347A"/>
<stop offset="0.8478" stop-color="#2A2141"/>
<stop offset="1" stop-color="#121214"/>
</linearGradient>
<linearGradient id="paint8_linear_144_44" x1="324.594" y1="149.094" x2="378.958" y2="280.494" gradientUnits="userSpaceOnUse">
<stop offset="0.3276" stop-color="#8157E4"/>
<stop offset="0.395" stop-color="#7D55DD"/>
<stop offset="0.495" stop-color="#724EC9"/>
<stop offset="0.615" stop-color="#6143A8"/>
<stop offset="0.7508" stop-color="#49347A"/>
<stop offset="0.8976" stop-color="#2A2141"/>
<stop offset="1" stop-color="#121214"/>
</linearGradient>
<radialGradient id="paint9_radial_144_44" cx="0" cy="0" r="1" gradientUnits="userSpaceOnUse" gradientTransform="translate(329.236 265.268) rotate(25.6964) scale(100.271 100.559)">
<stop offset="0.2882" stop-color="#27272E"/>
<stop offset="1" stop-color="#121214"/>
</radialGradient>
<clipPath id="clip0_144_44">
<rect width="512" height="512" fill="white"/>
</clipPath>
</defs>
</svg>
